<?xml version="1.0" standalone="no"?>
<!DOCTYPE svg PUBLIC "-//W3C//DTD SVG 20010904//EN"
 "http://www.w3.org/TR/2001/REC-SVG-20010904/DTD/svg10.dtd">
<svg version="1.0" xmlns="http://www.w3.org/2000/svg"
 width="400.000000pt" height="400.000000pt" viewBox="0 0 400.000000 400.000000"
 preserveAspectRatio="xMidYMid meet">
<metadata>
Created by potrace 1.11, written by Peter Selinger 2001-2013
</metadata>
<g transform="translate(0.000000,400.000000) scale(0.100000,-0.100000)"
fill="#000000" stroke="none">
<path d="M1131 3769 c-29 -5 -92 -27 -139 -49 -152 -72 -267 -215 -307 -383
-12 -52 -15 -195 -15 -883 0 -539 4 -841 11 -880 29 -163 151 -323 305 -400
l79 -39 936 0 935 0 79 39 c102 50 208 153 253 246 65 133 63 99 60 1051 -3
964 1 901 -75 1027 -73 120 -173 202 -305 250 l-73 27 -845 1 c-469 1 -869 -2
-899 -7z m1805 -50 c137 -50 241 -141 303 -263 34 -66 61 -175 61 -246 l0 -45
-178 1 c-97 1 -249 -1 -337 -5 -106 -4 -162 -3 -167 4 -5 6 -8 4 -8 -5 0 -13
-1 -13 -10 0 -11 18 -11 19 -15 -43 -9 -153 -162 -248 -303 -187 l-52 22 -189
-88 c-104 -48 -188 -91 -186 -94 2 -4 88 -46 190 -94 l186 -88 52 22 c136 59
283 -23 295 -165 22 -262 -355 -319 -410 -62 l-9 43 -196 91 -196 91 -39 -20
c-65 -34 -124 -34 -188 -1 -101 52 -144 157 -106 258 18 46 79 109 122 125 43
17 127 12 169 -10 22 -11 42 -20 46 -20 4 0 93 41 198 92 139 66 191 96 191
108 0 16 -27 18 -322 25 -178 4 -504 7 -725 8 l-403 2 0 66 c0 246 203 466
465 502 17 3 404 4 860 3 l830 -1 71 -26z m-1246 -1799 c0 -79 6 -93 29 -66
17 21 62 26 98 11 50 -21 63 -58 63 -180 l0 -105 -40 0 -40 0 0 103 c0 112 -6
127 -51 127 -46 0 -59 -31 -59 -137 l0 -93 -35 0 -35 0 0 133 c0 74 -3 168 -6
210 l-7 77 42 0 41 0 0 -80z m-154 48 c3 -3 2 -18 -2 -32 -6 -26 -8 -27 -63
-20 -48 5 -59 3 -74 -14 -29 -32 -13 -55 61 -93 87 -44 112 -85 93 -148 -21
-71 -99 -104 -197 -82 -54 13 -59 18 -48 58 5 19 10 20 32 12 37 -14 109 -14
127 1 20 17 19 53 -2 72 -10 9 -36 23 -58 33 -89 36 -124 107 -85 170 19 31
49 47 105 57 23 4 103 -6 111 -14z m884 -134 c0 -29 -4 -34 -23 -34 -51 0 -62
-21 -65 -124 l-4 -96 -34 0 -34 0 -2 110 c-1 61 -2 125 -2 143 -1 29 2 32 32
35 29 3 32 1 32 -25 l0 -27 16 22 c18 26 52 42 72 35 6 -3 12 -20 12 -39z
m216 30 c41 -20 74 -77 74 -129 l0 -35 -95 0 c-105 0 -119 -10 -67 -50 23 -19
36 -21 85 -17 l58 5 -3 -26 c-3 -23 -9 -28 -49 -36 -131 -25 -216 56 -189 182
12 55 49 97 96 112 43 12 52 12 90 -6z m-505 -4 c34 -19 47 -61 51 -172 l4
-108 -32 0 c-18 0 -34 5 -36 11 -3 8 -14 7 -35 -5 -39 -20 -66 -20 -102 -1
-33 16 -41 33 -41 80 0 51 27 75 103 94 l67 16 -16 24 c-13 18 -23 22 -53 19
-20 -3 -43 -8 -53 -12 -25 -11 -36 33 -12 51 21 15 127 17 155 3z"/>
</g>
</svg>
